{
  "accessors": [
    {
      "bufferView": 2,
      "componentType": 5126,
      "count": 27952,
      "max": [
        0.054999001324176788,
        -0,
        0.054974999278783798
      ],
      "min": [
        -0.054999001324176788,
        -0.13500000536441803,
        -0.054974999278783798
      ],
      "type": "VEC3"
    },
    {
      "bufferView": 2,
      "byteOffset": 335424,
      "componentType": 5126,
      "count": 27952,
      "max": [
        1,
        1,
        1
      ],
      "min": [
        -1,
        -1,
        -1
      ],
      "type": "VEC3"
    },
    {
      "bufferView": 3,
      "componentType": 5126,
      "count": 27952,
      "max": [
        1,
        0.82851964235305786,
        1,
        1
      ],
      "min": [
        -1,
        -0.82418984174728394,
        -1,
        -1
      ],
      "type": "VEC4"
    },
    {
      "bufferView": 1,
      "componentType": 5126,
      "count": 27952,
      "max": [
        0.38067600131034851,
        0.38050898909568787
      ],
      "min": [
        -0.38067600131034851,
        -0.93438702821731567
      ],
      "type": "VEC2"
    },
    {
      "bufferView": 0,
      "componentType": 5125,
      "count": 107451,
      "max": [
        27951
      ],
      "min": [
        0
      ],
      "type": "SCALAR"
    },
    {
      "bufferView": 2,
      "byteOffset": 670848,
      "componentType": 5126,
      "count": 4525,
      "max": [
        0.054999001324176788,
        -0,
        0.054974999278783798
      ],
      "min": [
        -0.054999001324176788,
        -0.13500000536441803,
        -0.054974999278783798
      ],
      "type": "VEC3"
    },
    {
      "bufferView": 2,
      "byteOffset": 725148,
      "componentType": 5126,
      "count": 4525,
      "max": [
        1,
        1,
        1
      ],
      "min": [
        -1,
        -1,
        -1
      ],
      "type": "VEC3"
    },
    {
      "bufferView": 3,
      "byteOffset": 447232,
      "componentType": 5126,
      "count": 4525,
      "max": [
        1,
        0.80380159616470337,
        1,
        1
      ],
      "min": [
        -1,
        -0.76295596361160278,
        -1,
        -1
      ],
      "type": "VEC4"
    },
    {
      "bufferView": 1,
      "byteOffset": 223616,
      "componentType": 5126,
      "count": 4525,
      "max": [
        0.77962398529052734,
        0.77928197383880615
      ],
      "min": [
        -0.77962398529052734,
        -1.6497290134429932
      ],
      "type": "VEC2"
    },
    {
      "bufferView": 0,
      "byteOffset": 429804,
      "componentType": 5125,
      "count": 19737,
      "max": [
        4524
      ],
      "min": [
        0
      ],
      "type": "SCALAR"
    }
  ],
  "asset": {
    "extras": {
      "author": "T-FLEX CAD (https://sketchfab.com/tflexcad)",
      "license": "CC-BY-4.0 (http://creativecommons.org/licenses/by/4.0/)",
      "source": "https://sketchfab.com/models/dec23d34c0eb4032a876c5b18f3975b6",
      "title": "Pistone"
    },
    "generator": "Sketchfab-3.20.7",
    "version": "2.0"
  },
  "bufferViews": [
    {
      "buffer": 0,
      "byteLength": 508752,
      "byteOffset": 0,
      "name": "floatBufferViews",
      "target": 34963
    },
    {
      "buffer": 0,
      "byteLength": 259816,
      "byteOffset": 508752,
      "byteStride": 8,
      "name": "floatBufferViews",
      "target": 34962
    },
    {
      "buffer": 0,
      "byteLength": 779448,
      "byteOffset": 768568,
      "byteStride": 12,
      "name": "floatBufferViews",
      "target": 34962
    },
    {
      "buffer": 0,
      "byteLength": 519632,
      "byteOffset": 1548016,
      "byteStride": 16,
      "name": "floatBufferViews",
      "target": 34962
    }
  ],
  "buffers": [
    {
      "byteLength": 2067648,
      "uri": "scene.bin"
    }
  ],
  "images": [
    {
      "uri": "textures/App0_baseColor.jpeg"
    },
    {
      "uri": "textures/App0_metallicRoughness.png"
    },
    {
      "uri": "textures/App1_baseColor.jpeg"
    },
    {
      "uri": "textures/App1_metallicRoughness.png"
    }
  ],
  "materials": [
    {
      "doubleSided": true,
      "emissiveFactor": [
        0,
        0,
        0
      ],
      "name": "App0",
      "pbrMetallicRoughness": {
        "baseColorFactor": [
          0.57410905950000002,
          0.57410905950000002,
          0.57410905950000002,
          1
        ],
        "baseColorTexture": {
          "index": 0,
          "texCoord": 0
        },
        "metallicFactor": 0.86341723560000005,
        "metallicRoughnessTexture": {
          "index": 1,
          "texCoord": 0
        },
        "roughnessFactor": 0.22463307889999995
      }
    },
    {
      "doubleSided": true,
      "emissiveFactor": [
        0,
        0,
        0
      ],
      "name": "App1",
      "pbrMetallicRoughness": {
        "baseColorFactor": [
          1,
          1,
          1,
          1
        ],
        "baseColorTexture": {
          "index": 2,
          "texCoord": 0
        },
        "metallicFactor": 0.81310277019999999,
        "metallicRoughnessTexture": {
          "index": 3,
          "texCoord": 0
        },
        "roughnessFactor": 0.19947584620000003
      }
    }
  ],
  "meshes": [
    {
      "primitives": [
        {
          "attributes": {
            "NORMAL": 1,
            "POSITION": 0,
            "TANGENT": 2,
            "TEXCOORD_0": 3
          },
          "indices": 4,
          "material": 0,
          "mode": 4
        }
      ]
    },
    {
      "primitives": [
        {
          "attributes": {
            "NORMAL": 6,
            "POSITION": 5,
            "TANGENT": 7,
            "TEXCOORD_0": 8
          },
          "indices": 9,
          "material": 1,
          "mode": 4
        }
      ]
    }
  ],
  "nodes": [
    {
      "children": [
        1
      ],
      "name": "RootNode (gltf orientation matrix)",
      "rotation": [
        -0.70710678118654746,
        -0,
        -0,
        0.70710678118654757
      ]
    },
    {
      "children": [
        2
      ],
      "matrix": [
        0,
        0,
        1,
        0,
        0,
        1,
        0,
        0,
        -1,
        0,
        0,
        0,
        -8.3800003380929411e-08,
        0,
        -1.1729999727094764e-07,
        1
      ],
      "name": "RootNode (model correction matrix)"
    },
    {
      "children": [
        3,
        4
      ],
      "name": "Pistone.obj.cleaner.materialmerger.gles"
    },
    {
      "mesh": 0,
      "name": ""
    },
    {
      "mesh": 1,
      "name": ""
    }
  ],
  "samplers": [
    {
      "magFilter": 9729,
      "minFilter": 9987,
      "wrapS": 10497,
      "wrapT": 10497
    }
  ],
  "scene": 0,
  "scenes": [
    {
      "name": "OSG_Scene",
      "nodes": [
        0
      ]
    }
  ],
  "textures": [
    {
      "sampler": 0,
      "source": 0
    },
    {
      "sampler": 0,
      "source": 1
    },
    {
      "sampler": 0,
      "source": 2
    },
    {
      "sampler": 0,
      "source": 3
    }
  ]
}

