{
  "accessors": [
    {
      "bufferView": 2,
      "componentType": 5126,
      "count": 6601,
      "max": [
        0.027498999610543251,
        0.029998999089002609,
        0.027496000751852989
      ],
      "min": [
        -0.027498999610543251,
        -0.016000000759959221,
        -0.027498999610543251
      ],
      "type": "VEC3"
    },
    {
      "bufferView": 2,
      "byteOffset": 79212,
      "componentType": 5126,
      "count": 6601,
      "max": [
        1,
        1,
        1
      ],
      "min": [
        -1,
        -1,
        -1
      ],
      "type": "VEC3"
    },
    {
      "bufferView": 3,
      "componentType": 5126,
      "count": 6601,
      "max": [
        1,
        0.72367024421691895,
        1,
        1
      ],
      "min": [
        -1,
        -0.7829967737197876,
        -1,
        -1
      ],
      "type": "VEC4"
    },
    {
      "bufferView": 1,
      "componentType": 5126,
      "count": 6601,
      "max": [
        0.76125997304916382,
        0.83056598901748657
      ],
      "min": [
        -0.75949698686599731,
        -0.76088798046112061
      ],
      "type": "VEC2"
    },
    {
      "bufferView": 0,
      "componentType": 5125,
      "count": 21222,
      "max": [
        6600
      ],
      "min": [
        0
      ],
      "type": "SCALAR"
    },
    {
      "bufferView": 2,
      "byteOffset": 158424,
      "componentType": 5126,
      "count": 3112,
      "max": [
        0.027498999610543251,
        0.030086999759078026,
        0.027482999488711357
      ],
      "min": [
        -0.027498999610543251,
        0.016086999326944351,
        -0.027482999488711357
      ],
      "type": "VEC3"
    },
    {
      "bufferView": 2,
      "byteOffset": 195768,
      "componentType": 5126,
      "count": 3112,
      "max": [
        1,
        1,
        1
      ],
      "min": [
        -1,
        -1,
        -1
      ],
      "type": "VEC3"
    },
    {
      "bufferView": 3,
      "byteOffset": 105616,
      "componentType": 5126,
      "count": 3112,
      "max": [
        1,
        0.73614239692687988,
        1,
        1
      ],
      "min": [
        -1,
        -0.73482716083526611,
        -1,
        -1
      ],
      "type": "VEC4"
    },
    {
      "bufferView": 1,
      "byteOffset": 52808,
      "componentType": 5126,
      "count": 3112,
      "max": [
        0.76135200262069702,
        1.2181639671325684
      ],
      "min": [
        -0.76135200262069702,
        -0.76088798046112061
      ],
      "type": "VEC2"
    },
    {
      "bufferView": 0,
      "byteOffset": 84888,
      "componentType": 5125,
      "count": 9390,
      "max": [
        3111
      ],
      "min": [
        0
      ],
      "type": "SCALAR"
    },
    {
      "bufferView": 2,
      "byteOffset": 233112,
      "componentType": 5126,
      "count": 13154,
      "max": [
        0.025993000715970993,
        0,
        0.025993000715970993
      ],
      "min": [
        -0.025993000715970993,
        -0.014000000432133675,
        -0.025993000715970993
      ],
      "type": "VEC3"
    },
    {
      "bufferView": 2,
      "byteOffset": 390960,
      "componentType": 5126,
      "count": 13154,
      "max": [
        1,
        1,
        0.99999922513961792
      ],
      "min": [
        -0.99999922513961792,
        -1,
        -0.99999922513961792
      ],
      "type": "VEC3"
    },
    {
      "bufferView": 0,
      "byteOffset": 122448,
      "componentType": 5125,
      "count": 78924,
      "max": [
        13153
      ],
      "min": [
        0
      ],
      "type": "SCALAR"
    }
  ],
  "asset": {
    "extras": {
      "author": "T-FLEX CAD (https://sketchfab.com/tflexcad)",
      "license": "CC-BY-4.0 (http://creativecommons.org/licenses/by/4.0/)",
      "source": "https://sketchfab.com/models/8b40bb1ceff543309f3d9ce424c6ff6b",
      "title": "Coupling"
    },
    "generator": "Sketchfab-3.18.7",
    "version": "2.0"
  },
  "bufferViews": [
    {
      "buffer": 0,
      "byteLength": 438144,
      "byteOffset": 0,
      "name": "floatBufferViews",
      "target": 34963
    },
    {
      "buffer": 0,
      "byteLength": 77704,
      "byteOffset": 438144,
      "byteStride": 8,
      "name": "floatBufferViews",
      "target": 34962
    },
    {
      "buffer": 0,
      "byteLength": 548808,
      "byteOffset": 515848,
      "byteStride": 12,
      "name": "floatBufferViews",
      "target": 34962
    },
    {
      "buffer": 0,
      "byteLength": 155408,
      "byteOffset": 1064656,
      "byteStride": 16,
      "name": "floatBufferViews",
      "target": 34962
    }
  ],
  "buffers": [
    {
      "byteLength": 1220064,
      "uri": "scene.bin"
    }
  ],
  "images": [
    {
      "uri": "textures/App0_baseColor.jpeg"
    },
    {
      "uri": "textures/App1_baseColor.jpeg"
    }
  ],
  "materials": [
    {
      "doubleSided": true,
      "emissiveFactor": [
        0,
        0,
        0
      ],
      "name": "App0",
      "pbrMetallicRoughness": {
        "baseColorFactor": [
          0.34999999999999998,
          0.34999999999999998,
          0.34999999999999998,
          1
        ],
        "baseColorTexture": {
          "index": 0,
          "texCoord": 0
        },
        "metallicFactor": 0,
        "roughnessFactor": 0.59999999999999998
      }
    },
    {
      "doubleSided": true,
      "emissiveFactor": [
        0,
        0,
        0
      ],
      "name": "App1",
      "pbrMetallicRoughness": {
        "baseColorFactor": [
          0.34999999999999998,
          0.34999999999999998,
          0.34999999999999998,
          1
        ],
        "baseColorTexture": {
          "index": 1,
          "texCoord": 0
        },
        "metallicFactor": 0,
        "roughnessFactor": 0.59999999999999998
      }
    },
    {
      "doubleSided": true,
      "emissiveFactor": [
        0,
        0,
        0
      ],
      "name": "App2",
      "pbrMetallicRoughness": {
        "baseColorFactor": [
          0.69989522299999996,
          0,
          0,
          1
        ],
        "metallicFactor": 0,
        "roughnessFactor": 0.59999999999999998
      }
    }
  ],
  "meshes": [
    {
      "primitives": [
        {
          "attributes": {
            "NORMAL": 1,
            "POSITION": 0,
            "TANGENT": 2,
            "TEXCOORD_0": 3
          },
          "indices": 4,
          "material": 0,
          "mode": 4
        }
      ]
    },
    {
      "primitives": [
        {
          "attributes": {
            "NORMAL": 6,
            "POSITION": 5,
            "TANGENT": 7,
            "TEXCOORD_0": 8
          },
          "indices": 9,
          "material": 1,
          "mode": 4
        }
      ]
    },
    {
      "primitives": [
        {
          "attributes": {
            "NORMAL": 11,
            "POSITION": 10
          },
          "indices": 12,
          "material": 2,
          "mode": 4
        }
      ]
    }
  ],
  "nodes": [
    {
      "children": [
        1
      ],
      "name": "RootNode (gltf orientation matrix)",
      "rotation": [
        -0.70710678118654746,
        -0,
        -0,
        0.70710678118654757
      ]
    },
    {
      "children": [
        2
      ],
      "name": "RootNode (model correction matrix)"
    },
    {
      "children": [
        3,
        4,
        5
      ],
      "name": "Coupling.obj.cleaner.gles"
    },
    {
      "mesh": 0,
      "name": ""
    },
    {
      "mesh": 1,
      "name": ""
    },
    {
      "mesh": 2,
      "name": ""
    }
  ],
  "samplers": [
    {
      "magFilter": 9729,
      "minFilter": 9987,
      "wrapS": 10497,
      "wrapT": 10497
    }
  ],
  "scene": 0,
  "scenes": [
    {
      "name": "OSG_Scene",
      "nodes": [
        0
      ]
    }
  ],
  "textures": [
    {
      "sampler": 0,
      "source": 0
    },
    {
      "sampler": 0,
      "source": 1
    }
  ]
}

