{
  "accessors": [
    {
      "bufferView": 2,
      "componentType": 5126,
      "count": 2990,
      "max": [
        5.2667808532714844,
        5.2667808532714844,
        7.1830129623413086
      ],
      "min": [
        0,
        0,
        0
      ],
      "type": "VEC3"
    },
    {
      "bufferView": 2,
      "byteOffset": 35880,
      "componentType": 5126,
      "count": 2990,
      "max": [
        0.99983376264572144,
        0.9998282790184021,
        0.98617714643478394
      ],
      "min": [
        -0.99985533952713013,
        -0.99985498189926147,
        -1
      ],
      "type": "VEC3"
    },
    {
      "bufferView": 3,
      "componentType": 5126,
      "count": 2990,
      "max": [
        0.99999940395355225,
        0.99999874830245972,
        0.68963295221328735,
        1
      ],
      "min": [
        -0.99999988079071045,
        -0.99999892711639404,
        -0.68462896347045898,
        1
      ],
      "type": "VEC4"
    },
    {
      "bufferView": 1,
      "componentType": 5126,
      "count": 2990,
      "max": [
        0.95010000467300415,
        0.95160001516342163
      ],
      "min": [
        0.021900000050663948,
        0.24310000240802765
      ],
      "type": "VEC2"
    },
    {
      "bufferView": 0,
      "componentType": 5125,
      "count": 12213,
      "max": [
        2989
      ],
      "min": [
        0
      ],
      "type": "SCALAR"
    },
    {
      "bufferView": 2,
      "byteOffset": 71760,
      "componentType": 5126,
      "count": 2947,
      "max": [
        5.2467555999755859,
        5.2467555999755859,
        7.1628060340881348
      ],
      "min": [
        0.020025014877319336,
        0.020025014877319336,
        0.020066976547241211
      ],
      "type": "VEC3"
    },
    {
      "bufferView": 2,
      "byteOffset": 107124,
      "componentType": 5126,
      "count": 2947,
      "max": [
        0.9998442530632019,
        0.99984735250473022,
        1
      ],
      "min": [
        -0.99984687566757202,
        -0.99984687566757202,
        -0.9863741397857666
      ],
      "type": "VEC3"
    },
    {
      "bufferView": 3,
      "byteOffset": 47840,
      "componentType": 5126,
      "count": 2947,
      "max": [
        0.99999874830245972,
        0.9999963641166687,
        0.68487036228179932,
        -1
      ],
      "min": [
        -0.99999815225601196,
        -0.99999874830245972,
        -0.68516081571578979,
        -1
      ],
      "type": "VEC4"
    },
    {
      "bufferView": 1,
      "byteOffset": 23920,
      "componentType": 5126,
      "count": 2947,
      "max": [
        0.95010000467300415,
        0.95160001516342163
      ],
      "min": [
        0.021900000050663948,
        0.2434999942779541
      ],
      "type": "VEC2"
    },
    {
      "bufferView": 0,
      "byteOffset": 48852,
      "componentType": 5125,
      "count": 12066,
      "max": [
        2946
      ],
      "min": [
        0
      ],
      "type": "SCALAR"
    },
    {
      "bufferView": 2,
      "byteOffset": 142488,
      "componentType": 5126,
      "count": 12243,
      "max": [
        5.2646970748901367,
        5.2646970748901367,
        7.1830129623413086
      ],
      "min": [
        0.0020830631256103516,
        0.0020840167999267578,
        0.47850990295410156
      ],
      "type": "VEC3"
    },
    {
      "bufferView": 2,
      "byteOffset": 289404,
      "componentType": 5126,
      "count": 12243,
      "max": [
        0.9962611198425293,
        0.99819654226303101,
        0.99858176708221436
      ],
      "min": [
        -0.99947184324264526,
        -0.99947184324264526,
        -0.99966293573379517
      ],
      "type": "VEC3"
    },
    {
      "bufferView": 3,
      "byteOffset": 94992,
      "componentType": 5126,
      "count": 12243,
      "max": [
        0.99933367967605591,
        0.99996763467788696,
        0.9998357892036438,
        1
      ],
      "min": [
        -0.99933373928070068,
        -0.99996602535247803,
        -0.99973517656326294,
        1
      ],
      "type": "VEC4"
    },
    {
      "bufferView": 1,
      "byteOffset": 47496,
      "componentType": 5126,
      "count": 12243,
      "max": [
        0.96660000085830688,
        0.45980000495910645
      ],
      "min": [
        0.54439997673034668,
        0.038100000470876694
      ],
      "type": "VEC2"
    },
    {
      "bufferView": 0,
      "byteOffset": 97116,
      "componentType": 5125,
      "count": 12243,
      "max": [
        12242
      ],
      "min": [
        0
      ],
      "type": "SCALAR"
    }
  ],
  "asset": {
    "extras": {
      "author": "Runemark (https://sketchfab.com/skyie)",
      "license": "CC-BY-4.0 (http://creativecommons.org/licenses/by/4.0/)",
      "source": "https://sketchfab.com/models/3895e066301246c4a89af36375e56b6c",
      "title": "Ornament Egg Download"
    },
    "generator": "Sketchfab-3.19.5",
    "version": "2.0"
  },
  "bufferViews": [
    {
      "buffer": 0,
      "byteLength": 146088,
      "byteOffset": 0,
      "name": "floatBufferViews",
      "target": 34963
    },
    {
      "buffer": 0,
      "byteLength": 145440,
      "byteOffset": 146088,
      "byteStride": 8,
      "name": "floatBufferViews",
      "target": 34962
    },
    {
      "buffer": 0,
      "byteLength": 436320,
      "byteOffset": 291528,
      "byteStride": 12,
      "name": "floatBufferViews",
      "target": 34962
    },
    {
      "buffer": 0,
      "byteLength": 290880,
      "byteOffset": 727848,
      "byteStride": 16,
      "name": "floatBufferViews",
      "target": 34962
    }
  ],
  "buffers": [
    {
      "byteLength": 1018728,
      "uri": "scene.bin"
    }
  ],
  "images": [
    {
      "uri": "textures/Scene_-_Root_baseColor.png"
    },
    {
      "uri": "textures/Scene_-_Root_normal.png"
    },
    {
      "uri": "textures/Scene_-_Root_metallicRoughness.png"
    }
  ],
  "materials": [
    {
      "doubleSided": true,
      "name": "Scene_-_Root",
      "normalTexture": {
        "index": 1,
        "scale": 1,
        "texCoord": 0
      },
      "pbrMetallicRoughness": {
        "baseColorFactor": [
          1,
          1,
          1,
          1
        ],
        "baseColorTexture": {
          "index": 0,
          "texCoord": 0
        },
        "metallicFactor": 0,
        "metallicRoughnessTexture": {
          "index": 2,
          "texCoord": 0
        },
        "roughnessFactor": 1
      }
    }
  ],
  "meshes": [
    {
      "primitives": [
        {
          "attributes": {
            "NORMAL": 1,
            "POSITION": 0,
            "TANGENT": 2,
            "TEXCOORD_0": 3
          },
          "indices": 4,
          "material": 0,
          "mode": 4
        }
      ]
    },
    {
      "primitives": [
        {
          "attributes": {
            "NORMAL": 6,
            "POSITION": 5,
            "TANGENT": 7,
            "TEXCOORD_0": 8
          },
          "indices": 9,
          "material": 0,
          "mode": 4
        }
      ]
    },
    {
      "primitives": [
        {
          "attributes": {
            "NORMAL": 11,
            "POSITION": 10,
            "TANGENT": 12,
            "TEXCOORD_0": 13
          },
          "indices": 14,
          "material": 0,
          "mode": 4
        }
      ]
    }
  ],
  "nodes": [
    {
      "children": [
        1
      ],
      "name": "RootNode (gltf orientation matrix)",
      "rotation": [
        -0.70710678118654746,
        -0,
        -0,
        0.70710678118654757
      ]
    },
    {
      "children": [
        2
      ],
      "name": "RootNode (model correction matrix)"
    },
    {
      "children": [
        3
      ],
      "matrix": [
        1,
        0,
        0,
        0,
        0,
        1,
        0,
        0,
        0,
        0,
        1,
        0,
        -2.633389949798584,
        -2.6333909034729004,
        -3.3106060028076172,
        1
      ],
      "name": "EasterEgg..Lobj.obj.cleaner.materialmerger.gles"
    },
    {
      "children": [
        4,
        5,
        6
      ],
      "name": ""
    },
    {
      "mesh": 0,
      "name": ""
    },
    {
      "mesh": 1,
      "name": ""
    },
    {
      "mesh": 2,
      "name": ""
    }
  ],
  "samplers": [
    {
      "magFilter": 9729,
      "minFilter": 9987,
      "wrapS": 10497,
      "wrapT": 10497
    }
  ],
  "scene": 0,
  "scenes": [
    {
      "name": "OSG_Scene",
      "nodes": [
        0
      ]
    }
  ],
  "textures": [
    {
      "sampler": 0,
      "source": 0
    },
    {
      "sampler": 0,
      "source": 1
    },
    {
      "sampler": 0,
      "source": 2
    }
  ]
}

